<?xml version="1.0" encoding="UTF-8"?><svg id="Layer_2" xmlns="http://www.w3.org/2000/svg" viewBox="0 0 734.68 287.51"><defs><style>.cls-1{fill:#fb6511;stroke-width:0px;}</style></defs><g id="Layer_1-2"><path class="cls-1" d="m83.59,129.3c4.25,22.79-5.37,39.82-25.11,43.5-10.42,1.94-18.89-1.08-25.15-7.68l1.92,10.28-16.81,3.13L0,79.6l17.51-3.26,6.81,36.54c3.57-7.85,10.18-13.26,20.19-15.12,19.73-3.68,34.84,8.75,39.09,31.53Zm-17.89,2.76c-2.82-15.15-11.28-21.19-22.68-19.07s-17,11.36-14.18,26.51c2.82,15.15,11.38,21.75,22.78,19.62s16.9-11.92,14.08-27.07Z"/><path class="cls-1" d="m82.36,92.43l17.51-3.26,13.36,71.7-17.51,3.26-13.36-71.7Zm-4.65-25.73l17.23-3.21,3.06,16.4-17.23,3.21-3.06-16.4Z"/><path class="cls-1" d="m183.41,116.3l-53.63,10c3.63,12.55,11.92,16.9,22.06,15.01,8.34-1.55,13.03-6.45,14.48-13.34l16.81-3.13c-.89,15.26-11.66,26.9-28.89,30.11-21.12,3.94-38.43-7.93-42.7-30.86-4.2-22.51,7.18-40.16,28.44-44.12,21.95-4.09,38.41,9.38,42.66,32.16l.78,4.17Zm-55.77-2.26l35.99-6.71c-3.28-9.88-10.83-15.67-21.25-13.72-9.31,1.73-15.27,8.31-14.74,20.43Z"/><path class="cls-1" d="m249.72,86.26l8.86,47.52-17.51,3.26-8.31-44.6c-1.71-9.17-7.12-12.76-16.02-11.11-7.64,1.42-15,8.26-12.61,21.04l7.48,40.16-17.51,3.26-13.36-71.7,16.95-3.16,1.92,10.28c3.32-7.66,10-14.23,20.14-16.12,15.01-2.8,26.78,4.07,29.97,21.16Z"/><path class="cls-1" d="m317.01,48.7l-13.32,76.67-20.15,3.75-39.9-66.75,18.76-3.5,10.55,18.02c5.95,11.11,12.23,23.17,18.07,34.45,1.36-12.76,2.89-26.13,4.42-38.78l3.37-20.47,18.2-3.39Z"/><path class="cls-1" d="m390.58,77.69l-53.64,10c3.63,12.55,11.92,16.9,22.06,15.01,8.34-1.55,13.03-6.45,14.48-13.34l16.81-3.13c-.89,15.26-11.66,26.9-28.89,30.11-21.12,3.94-38.43-7.93-42.7-30.86-4.2-22.51,7.18-40.16,28.44-44.12s38.41,9.38,42.66,32.16l.78,4.17Zm-55.77-2.26l35.99-6.71c-3.28-9.88-10.83-15.67-21.25-13.72-9.31,1.73-15.27,8.31-14.74,20.43Z"/><path class="cls-1" d="m456.89,47.65l8.86,47.52-17.51,3.26-8.31-44.6c-1.71-9.17-7.12-12.76-16.02-11.11-7.64,1.42-14.99,8.26-12.61,21.04l7.48,40.16-17.51,3.26-13.36-71.7,16.95-3.16,1.92,10.28c3.32-7.66,10-14.23,20.14-16.12,15.01-2.8,26.78,4.07,29.97,21.16Z"/><path class="cls-1" d="m524.9,9.96l13.36,71.7-16.95,3.16-1.94-10.42c-3.43,7.83-9.97,14.37-20.26,16.28-14.87,2.77-26.64-4.09-29.83-21.18l-8.86-47.52,17.51-3.26,8.31,44.6c1.71,9.17,6.98,12.79,16.02,11.11,7.64-1.42,15-8.26,12.61-21.04l-7.48-40.16,17.51-3.26Z"/><path class="cls-1" d="m608.6,37.06l-53.63,10c3.63,12.55,11.92,16.9,22.06,15.01,8.34-1.55,13.03-6.45,14.48-13.34l16.81-3.13c-.89,15.26-11.66,26.9-28.89,30.11-21.12,3.94-38.43-7.93-42.7-30.86-4.2-22.51,7.18-40.16,28.44-44.12s38.41,9.38,42.66,32.16l.78,4.17Zm-55.77-2.26l35.99-6.71c-3.28-9.88-10.83-15.67-21.25-13.72-9.31,1.73-15.27,8.31-14.74,20.43Z"/><path class="cls-1" d="m29.54,255.84c-4.27-22.93,7.04-40.13,28.44-44.12,18.76-3.5,33.26,4.87,38.48,21.3l-17.51,3.26c-3.32-8.58-10.47-11.42-18.25-9.97-10.42,1.94-16.16,10.49-13.23,26.19s11.64,21.55,21.78,19.66c7.92-1.48,13.93-7.05,13.55-16.76l17.51-3.26c1.32,17.87-10,31.19-28.34,34.61-21.26,3.96-38.15-7.99-42.42-30.91Z"/><path class="cls-1" d="m165.16,218.49l8.86,47.52-17.51,3.26-8.31-44.6c-1.71-9.17-7.12-12.76-16.02-11.11-7.64,1.42-15,8.26-12.61,21.04l7.48,40.16-17.51,3.26-18.44-98.93,17.51-3.26,6.86,36.82c3.51-7.41,9.99-13.51,19.72-15.32,15.01-2.8,26.78,4.07,29.97,21.16Z"/><path class="cls-1" d="m244.11,221.46l-53.63,10c3.63,12.55,11.92,16.9,22.06,15.01,8.34-1.55,13.03-6.45,14.48-13.34l16.81-3.13c-.89,15.26-11.66,26.9-28.89,30.11-21.12,3.94-38.43-7.93-42.7-30.86s7.18-40.16,28.44-44.12,38.41,9.38,42.66,32.16l.78,4.17Zm-55.77-2.26l35.99-6.71c-3.28-9.88-10.83-15.67-21.25-13.72-9.31,1.73-15.27,8.31-14.74,20.43Z"/><path class="cls-1" d="m307.21,227.1l2.54,13.62-60.86,11.34-2.15-11.53,21.69-40.99c2.24-4.16,4.6-8.48,6.99-12.66-4.98,1.07-9.84,1.98-14.7,2.88l-21.95,4.09-2.54-13.62,58.5-10.9,2.15,11.53-21.69,40.99c-2.24,4.16-4.6,8.48-6.99,12.66,4.98-1.07,9.84-1.98,14.7-2.88l24.32-4.53Z"/><path class="cls-1" d="m419.38,190.95c3.16,16.95-5.83,30.42-29.18,34.77l-46.27,8.62-18.44-98.93,44.74-8.34c22.79-4.25,34.21,6.13,36.72,19.61,1.81,9.73-1.82,18.02-9.24,23.72,12.47,2.13,19.82,10.68,21.66,20.55Zm-72.25-43.61l4.82,25.84,24.59-4.58c9.73-1.81,13.77-7.89,12.24-16.08-1.37-7.36-7.33-11.57-17.06-9.76l-24.59,4.58Zm52.92,46.35c-1.74-9.31-8.68-12.62-18.82-10.73l-26.54,4.95,5.1,27.37,26.54-4.95c10.56-1.97,15.32-8.03,13.72-16.65Z"/><path class="cls-1" d="m486.63,185.18l-43.35,8.08-3.58,23.24-19.31,3.6,19.22-105.95,21.95-4.09,56.79,91.78-19.87,3.7-11.85-20.37Zm-8.67-14.92l-5.88-9.97c-5.16-8.38-12.34-20.7-18.55-31.62-1.85,12.42-4.12,26.5-5.77,36.16l-1.76,11.4,31.96-5.96Z"/><path class="cls-1" d="m607.52,82.85l18.44,98.93-17.92,3.34-5.62-30.15c-2.8-15.01-5.66-31.15-8.59-49.15-.82,7.92-1.8,15-3.26,24.19l-9.5,60.14-15.42,2.87-30.66-52.66c-4.5-7.93-7.96-14.19-11.56-21.14,3.73,17.71,6.87,33.8,9.65,48.67l5.62,30.15-18.06,3.37-18.44-98.93,27.23-5.08,26.05,44.89c4.57,8.35,9.44,17.51,13.47,25.24.9-9.08,2.17-19.96,3.57-29.42l7.76-50.19,27.23-5.08Z"/><path class="cls-1" d="m706.69,137.41c3.16,16.95-5.83,30.42-29.18,34.77l-46.27,8.62-18.44-98.93,44.74-8.34c22.79-4.25,34.21,6.13,36.72,19.61,1.81,9.73-1.82,18.02-9.24,23.72,12.47,2.13,19.82,10.68,21.66,20.55Zm-72.25-43.61l4.82,25.84,24.59-4.58c9.73-1.81,13.77-7.89,12.24-16.08-1.37-7.36-7.33-11.57-17.06-9.76l-24.59,4.58Zm52.92,46.35c-1.74-9.31-8.68-12.62-18.82-10.73l-26.54,4.95,5.1,27.37,26.54-4.95c10.56-1.97,15.32-8.03,13.72-16.65Z"/><path class="cls-1" d="m703.81,93.09l17.51-3.26,13.36,71.7-17.51,3.26-13.36-71.7Zm-6.06-25.47l20.05-3.74,3.74,20.07-20.05,3.74-3.74-20.07Z"/></g></svg>